<svg width="6" height="6" viewBox="0 0 6 6" fill="none" xmlns="http://www.w3.org/2000/svg">
<path d="M0.666667 5.33333H1.14167L4.4 2.075L3.925 1.6L0.666667 4.85833V5.33333ZM0 6V4.58333L4.4 0.191667C4.46667 0.130556 4.54028 0.0833333 4.62083 0.05C4.70139 0.0166667 4.78611 0 4.875 0C4.96389 0 5.05 0.0166667 5.13333 0.05C5.21667 0.0833333 5.28889 0.133333 5.35 0.2L5.80833 0.666667C5.875 0.727778 5.92361 0.8 5.95417 0.883333C5.98472 0.966667 6 1.05 6 1.13333C6 1.22222 5.98472 1.30694 5.95417 1.3875C5.92361 1.46806 5.875 1.54167 5.80833 1.60833L1.41667 6H0ZM5.33333 1.13333L4.86667 0.666667L5.33333 1.13333ZM4.15833 1.84167L3.925 1.6L4.4 2.075L4.15833 1.84167Z" fill="white"/>
</svg>
