<svg width="7" height="6" viewBox="0 0 7 6" fill="none" xmlns="http://www.w3.org/2000/svg">
<path d="M0.666667 5.33333C0.483333 5.33333 0.326389 5.26806 0.195833 5.1375C0.0652778 5.00694 0 4.85 0 4.66667V0.666667C0 0.483333 0.0652778 0.326389 0.195833 0.195833C0.326389 0.0652778 0.483333 0 0.666667 0H6C6.18333 0 6.34028 0.0652778 6.47083 0.195833C6.60139 0.326389 6.66667 0.483333 6.66667 0.666667V4.66667C6.66667 4.85 6.60139 5.00694 6.47083 5.1375C6.34028 5.26806 6.18333 5.33333 6 5.33333H0.666667ZM3.33333 3L0.666667 1.33333V4.66667H6V1.33333L3.33333 3ZM3.33333 2.33333L6 0.666667H0.666667L3.33333 2.33333ZM0.666667 1.33333V0.666667V1.33333V4.66667V1.33333Z" fill="white"/>
</svg>
