<svg width="40" height="40" viewBox="0 0 40 40" fill="none" xmlns="http://www.w3.org/2000/svg">
<rect width="40" height="40" rx="8" fill="#86F2E4"/>
<path d="M11 28.5C10.45 28.5 9.97917 28.3042 9.5875 27.9125C9.19583 27.5208 9 27.05 9 26.5C9 25.95 9.19583 25.4792 9.5875 25.0875C9.97917 24.6958 10.45 24.5 11 24.5C11.1 24.5 11.1875 24.5 11.2625 24.5C11.3375 24.5 11.4167 24.5167 11.5 24.55L16.05 20C16.0167 19.9167 16 19.8375 16 19.7625C16 19.6875 16 19.6 16 19.5C16 18.95 16.1958 18.4792 16.5875 18.0875C16.9792 17.6958 17.45 17.5 18 17.5C18.55 17.5 19.0208 17.6958 19.4125 18.0875C19.8042 18.4792 20 18.95 20 19.5C20 19.5333 19.9833 19.7 19.95 20L22.5 22.55C22.5833 22.5167 22.6625 22.5 22.7375 22.5C22.8125 22.5 22.9 22.5 23 22.5C23.1 22.5 23.1875 22.5 23.2625 22.5C23.3375 22.5 23.4167 22.5167 23.5 22.55L27.05 19C27.0167 18.9167 27 18.8375 27 18.7625C27 18.6875 27 18.6 27 18.5C27 17.95 27.1958 17.4792 27.5875 17.0875C27.9792 16.6958 28.45 16.5 29 16.5C29.55 16.5 30.0208 16.6958 30.4125 17.0875C30.8042 17.4792 31 17.95 31 18.5C31 19.05 30.8042 19.5208 30.4125 19.9125C30.0208 20.3042 29.55 20.5 29 20.5C28.9 20.5 28.8125 20.5 28.7375 20.5C28.6625 20.5 28.5833 20.4833 28.5 20.45L24.95 24C24.9833 24.0833 25 24.1625 25 24.2375C25 24.3125 25 24.4 25 24.5C25 25.05 24.8042 25.5208 24.4125 25.9125C24.0208 26.3042 23.55 26.5 23 26.5C22.45 26.5 21.9792 26.3042 21.5875 25.9125C21.1958 25.5208 21 25.05 21 24.5C21 24.4 21 24.3125 21 24.2375C21 24.1625 21.0167 24.0833 21.05 24L18.5 21.45C18.4167 21.4833 18.3375 21.5 18.2625 21.5C18.1875 21.5 18.1 21.5 18 21.5C17.9667 21.5 17.8 21.4833 17.5 21.45L12.95 26C12.9833 26.0833 13 26.1625 13 26.2375C13 26.3125 13 26.4 13 26.5C13 27.05 12.8042 27.5208 12.4125 27.9125C12.0208 28.3042 11.55 28.5 11 28.5ZM12 18.475L11.375 17.125L10.025 16.5L11.375 15.875L12 14.525L12.625 15.875L13.975 16.5L12.625 17.125L12 18.475ZM23 17.5L22.05 15.45L20 14.5L22.05 13.55L23 11.5L23.95 13.55L26 14.5L23.95 15.45L23 17.5Z" fill="#006F66"/>
</svg>
